<?xml version="1.0" standalone="no"?>
<!DOCTYPE svg PUBLIC "-//W3C//DTD SVG 20010904//EN"
 "http://www.w3.org/TR/2001/REC-SVG-20010904/DTD/svg10.dtd">
<svg version="1.0" xmlns="http://www.w3.org/2000/svg"
 width="512.000000pt" height="512.000000pt" viewBox="0 0 512.000000 512.000000"
 preserveAspectRatio="xMidYMid meet">

<g transform="translate(0.000000,512.000000) scale(0.100000,-0.100000)"
fill="#000000" stroke="none">
<path d="M2315 5109 c-800 -83 -1501 -518 -1927 -1196 -487 -774 -516 -1777
-75 -2578 119 -218 267 -413 449 -592 406 -402 894 -641 1483 -725 136 -19
512 -16 660 6 585 85 1088 342 1491 759 197 204 336 401 459 652 92 186 136
306 185 499 58 228 75 372 75 631 0 296 -32 509 -116 770 -124 390 -330 728
-622 1024 -399 403 -894 653 -1462 737 -123 18 -478 26 -600 13z m493 -1648
c319 -93 560 -334 653 -653 30 -105 37 -315 14 -429 -69 -345 -327 -623 -665
-720 -107 -30 -317 -38 -431 -14 -347 70 -623 327 -721 670 -20 69 -23 103
-23 245 0 142 3 176 23 245 97 340 366 593 712 670 98 22 342 14 438 -14z
m-1354 -1013 c3 -13 10 -54 17 -93 36 -212 135 -401 298 -568 303 -312 743
-416 1158 -273 370 127 666 475 724 853 6 43 13 84 15 91 3 9 139 12 640 12
l637 0 -6 -98 c-20 -293 -112 -616 -258 -903 -428 -841 -1349 -1361 -2283
-1291 -260 20 -503 76 -731 169 -705 286 -1235 894 -1420 1628 -32 127 -58
291 -69 428 l-5 67 639 0 640 0 4 -22z"/>
<path d="M2379 3311 c-97 -25 -171 -58 -251 -112 -214 -145 -338 -380 -338
-639 0 -428 342 -770 770 -770 368 0 682 258 756 620 20 99 15 259 -11 355
-69 254 -285 470 -540 540 -96 26 -293 29 -386 6z m341 -177 c197 -56 356
-216 416 -419 23 -80 23 -230 0 -310 -60 -205 -216 -361 -421 -421 -80 -23
-230 -23 -310 0 -205 60 -361 216 -421 421 -11 39 -17 94 -17 155 0 61 6 116
17 155 68 230 258 399 490 436 66 10 176 2 246 -17z"/>
<path d="M2509 2813 c-55 -9 -133 -66 -165 -120 -55 -92 -55 -174 0 -266 35
-59 110 -110 176 -121 169 -27 328 138 292 302 -32 139 -165 229 -303 205z
m108 -195 c51 -48 15 -138 -56 -138 -47 0 -81 32 -81 79 0 72 84 109 137 59z"/>
<path d="M4353 1530 c-13 -5 -38 -31 -55 -56 -153 -222 -277 -362 -437 -494
-57 -47 -102 -92 -105 -105 -13 -50 32 -105 85 -105 91 0 498 421 606 626 24
47 26 54 13 84 -9 21 -25 37 -46 46 -19 8 -35 14 -36 13 -2 0 -13 -4 -25 -9z"/>
</g>
</svg>
